<svg width="418" height="391" viewBox="0 0 418 391" fill="none" xmlns="http://www.w3.org/2000/svg">
<path opacity="0.8" d="M386.377 389.423C382.69 386.863 380.359 382.354 378.907 378.201C377.382 374.001 376.547 369.71 375.881 365.344C374.546 356.588 373.876 347.431 370.777 336.375C364.624 314.114 345.148 303.752 337.63 298.95C334.196 296.775 328.675 293.364 323.865 290.669L320.756 288.939C332.231 291.055 340.388 295.824 347.715 301.195C355.804 307.045 362.875 313.914 374.767 319.505C382.738 323.183 390.886 324.455 397.427 323.699C403.989 323.066 408.772 320.462 411.663 317.911C413.901 316.012 415.602 313.571 416.593 310.838C416.97 309.882 417.208 308.88 417.3 307.864C409.104 310.52 402.207 307.953 397.002 304.112C391.631 300.191 387.317 295.022 380.459 289.624C373.6 284.226 365.31 282.168 357.764 281.89C350.219 281.613 343.515 283.06 339.634 283.629C336.139 284.156 330.535 285.21 325.899 286.308L319.48 287.947C311.339 277.363 302.837 267.063 293.975 257.049C302.574 258.576 309.245 261.426 315.782 264.558C323.974 268.419 332.212 272.804 343.666 274.207C359.148 275.825 368.613 269.893 372.728 264.769C376.996 259.475 377.14 254.913 377.14 254.913C369.983 256.974 363.832 255.484 358.32 253.064C352.74 250.599 347.697 247.223 341.203 244.413C334.71 241.604 328.161 242.193 321.932 243.78C315.747 245.354 310.146 247.95 306.79 249.122L291.685 254.512C290.147 252.797 288.597 251.093 287.033 249.401C285.313 246.803 282.982 243.846 280.671 241.826C279.721 241.023 278.725 240.276 277.685 239.589C275.787 237.65 273.897 235.703 271.964 233.797C267.619 229.565 263.169 225.431 258.656 221.357C264.928 223.06 271.029 225.299 276.889 228.049C280.843 229.858 284.68 231.733 288.715 233.414C292.894 235.093 296.571 236.608 302.392 237.645C309.395 238.774 313.909 238.255 317.612 237.413C321.241 236.557 324.021 235.218 326.629 233.977L333.223 230.757C334.928 229.927 335.959 229.296 335.959 229.296C329.434 224.802 324.026 221.77 318.54 218.041L310.287 212.72C308.859 211.835 307.482 210.987 306.217 210.205C304.818 209.286 303.351 208.472 301.826 207.771C295.061 204.567 288.514 205.379 282.62 207.157C276.727 208.935 271.464 211.699 268.215 212.896C265.337 213.985 260.531 215.727 256.22 216.941C255.575 217.126 254.955 217.294 254.347 217.455C242.626 207.098 230.254 197.478 217.302 188.652C230.447 189.384 240.491 191.09 250.365 193.047C261.32 195.18 272.006 197.463 284.734 197.16C286.877 197.11 288.912 196.987 290.927 196.786C295.842 196.243 300.669 195.028 305.272 193.175C309.072 191.604 312.687 189.613 316.048 187.242C318.807 185.325 321.034 183.573 322.595 182.273C323.437 181.592 324.231 180.856 324.972 180.069C315.323 177.588 307.591 176.504 299.853 174.448C296 173.478 292.274 172.467 288.678 171.289C284.49 170.013 280.219 169.005 275.891 168.271C266.558 166.691 258.56 168.762 251.614 171.52C244.669 174.279 238.828 177.794 235.111 179.486C231.83 180.957 226.365 183.426 221.552 185.233C219.272 186.131 217.164 186.882 215.562 187.441C208.638 182.812 201.526 178.459 194.225 174.381C188.238 171.008 182.083 167.895 175.847 164.982C203.158 156.62 220.505 162.317 245.503 160.336C262.942 159.021 273.194 154.378 279.405 149.857C285.617 145.336 287.519 140.977 287.519 140.977C267.331 141.785 255.535 133.704 233.988 132.198C212.462 130.844 197.721 145.412 190.955 150.633C186.584 154.043 178.386 160.76 174.205 164.196C161.404 158.294 148.114 153.447 134.468 149.703C144.292 142.674 154.755 139.913 164.823 137.782C176.555 135.215 188.884 133.938 203.095 126.723C220.405 118.003 228.269 107.914 231.506 100.71C234.776 93.4307 233.81 88.7591 233.81 88.7591C225.267 94.8717 217.119 97.3656 208.742 99.173L195.765 101.715C191.203 102.593 186.425 103.858 181.962 104.772C172.157 107.05 164.002 112.049 157.436 117.677C150.87 123.305 146.328 129.329 143.551 132.743C140.273 136.73 137.246 140.911 134.489 145.261C133.618 146.651 132.844 147.958 132.19 149.109C121.92 146.369 111.459 144.323 100.88 142.985C96.3391 142.441 91.7753 142.03 87.1887 141.751C94.4205 138.226 100.588 134.683 106.356 131.34C113.939 126.832 120.824 122.65 127.435 118.324C134.066 114.059 140.483 109.471 146.66 104.577C152.536 99.9352 158.766 94.9515 165.215 88.5151C173.791 79.9612 179.647 71.376 182.947 63.705C186.246 56.034 187.142 49.4947 186.845 44.6725C186.487 39.7875 185.164 36.6397 183.953 34.6907C182.741 32.7417 181.85 32.0222 181.85 32.0222C178.977 44.1441 171.499 51.7189 163.652 57.7588C155.619 63.9046 146.616 68.7333 135.859 76.7033C124.664 85.1238 118.66 94.0703 113.279 102.212C108.057 110.333 104.107 117.806 101.08 122.014C98.4464 125.766 93.8525 131.853 89.1013 136.682C87.3263 138.533 85.5539 140.199 84.0333 141.562C73.0164 140.999 61.9529 141.34 50.9561 142.582C46.0419 143.134 41.1503 143.857 36.2812 144.749L37.1822 144.233C43.1882 140.828 48.9804 137.06 54.5246 132.949C60.2914 128.781 65.703 124.148 70.7022 119.099C76.5629 113.257 81.7086 106.757 86.0297 99.737C90.6465 92.2518 93.7492 83.9732 95.1617 75.3709C96.3194 68.1449 96.3511 60.8084 95.2557 53.6178C93.2755 40.744 88.6552 31.552 86.0175 26.1072C83.7014 21.1949 79.3402 13.7154 74.9306 8.50318C70.587 3.15136 66.5613 0.313269 66.5613 0.313269C71.9518 8.19293 74.4128 18.1202 75.1513 27.0995C75.8321 35.7576 75.2542 44.4924 73.4353 53.0388C70.0578 69.6679 63.3059 82.915 52.9724 99.2916C39.1388 120.848 30.096 132.503 24.4339 140.802C22.0574 144.093 20.2401 146.794 18.88 148.831C13.1604 150.491 7.5463 152.506 2.07176 154.866L2.05605 154.875C1.46826 155.15 1.00813 155.64 0.77434 156.239C0.540552 156.837 0.5517 157.498 0.80535 158.079C1.05902 158.661 1.53507 159.116 2.13141 159.348C2.72773 159.579 3.39697 159.569 3.99564 159.319L4.19941 159.231C8.33481 157.417 12.5585 155.814 16.8536 154.43L18.2577 155.12L20.6033 156.844C22.2029 157.966 23.6883 159.236 25.0399 160.64C26.4405 162.045 27.8217 163.315 29.0766 164.844C34.1861 170.718 38.2294 176.987 41.8927 183.335C49.232 196.06 55.0903 209.206 64.7031 223.908C77.4959 243.516 89.5354 252.801 98.0297 256.811C106.666 260.792 111.583 259.835 111.583 259.835C95.0719 239.382 94.8033 221.86 82.5775 197.257C70.4628 172.374 47.0503 161.937 37.475 157.837C32.7659 155.66 27.8587 153.912 22.8131 152.614C32.1898 150.025 41.7446 148.172 51.3874 147.071C53.4645 146.816 55.5427 146.596 57.6221 146.413C62.5816 147.745 67.1038 150.28 70.7827 153.79C76.5845 159.061 80.8043 165.623 84.2013 172.547C87.7145 179.58 90.1092 186.581 93.8445 195.152C97.1992 202.686 100.494 210.503 104.686 219.187C115.637 242.415 127.501 255.136 136.244 260.571C140.621 263.359 144.125 264.573 146.539 265.089C148.952 265.605 150.21 265.495 150.21 265.495C141.664 253.844 138.199 242.716 135.346 231.413C132.492 220.041 130.505 208.197 124.948 193.494C123.591 189.923 121.969 186.459 120.095 183.132C119.124 181.436 118.38 180.136 117.55 178.84C116.681 177.416 115.793 176.047 114.837 174.639C111.213 169.255 106.959 164.318 102.16 159.929C95.2693 153.712 87.1683 148.938 78.3282 145.883C78.1691 145.824 77.9809 145.764 77.8088 145.704C85.3283 145.805 92.8251 146.279 100.299 147.125C107.56 147.969 114.753 149.218 121.883 150.743C132.142 160.653 137.398 172.551 141.336 183.893C146.023 197.424 148.748 211.264 156.245 227.702C160.541 237.137 165.022 245.867 169.905 252.103C174.761 258.444 179.808 262.599 184.216 264.881C188.623 267.162 192.197 267.682 194.529 267.56C196.86 267.439 197.928 266.946 197.928 266.946C193.349 263.097 190.536 258.147 188.675 253.251C186.815 248.355 185.776 243.367 184.95 238.282C184.123 233.197 183.539 227.961 182.483 222.185C181.999 219.351 181.109 216.049 180.496 213.281C179.882 210.513 179.093 207.467 178.187 204.297C174.93 192.812 168.944 182.309 160.723 173.653C153.571 166.004 146.096 161.305 141.81 158.457C139.8 157.042 137.013 155.335 134.031 153.679C149.449 157.857 164.411 163.451 178.725 170.388C183.524 173.528 187.156 178.978 189.275 184.659C191.795 191.559 192.771 198.717 193.016 205.931C193.17 209.527 193.127 213.196 193.084 216.971L193.083 223.014L193.261 228.968C193.543 236.881 194.082 245.351 195.986 254.779C198.473 267.314 203.135 277.402 208.438 284.452C213.761 291.565 219.68 295.497 224.267 297.538C226.28 298.322 228.371 298.908 230.508 299.287C232 299.465 233.509 299.494 235.012 299.371C237.351 299.16 238.449 298.625 238.449 298.625C228.125 290.785 224.657 280.359 223.457 270.427C222.23 260.273 223.016 249.997 222.688 236.565C222.545 230.203 221.675 223.892 220.093 217.752C218.759 212.233 216.787 206.269 214.395 201.363C211.006 194.319 206.478 187.884 200.985 182.308C212.645 189.23 223.854 196.854 234.552 205.138C239.138 214.765 238.918 224.627 237.593 233.883C235.986 244.8 232.865 257.312 234.836 272.296C236.126 282.275 239.299 289.93 242.823 295.372C246.347 300.814 250.228 304.2 253.594 306.308C255.931 307.778 258.52 308.825 261.243 309.401C261.465 311.1 261.827 312.774 262.325 314.409C264.123 320.461 267.424 324.459 270.491 326.612C272.77 328.305 275.491 329.333 278.353 329.583C279.376 329.691 280.413 329.658 281.432 329.486C277.334 322.589 278.802 315.665 281.711 310.087C284.633 304.415 289.065 298.954 292.742 291.149C296.39 284.255 296.929 275.424 295.324 268.195C294.673 265.102 293.692 262.091 292.397 259.214C297.855 265.292 303.174 271.492 308.355 277.813C310.446 286.795 308.164 294.89 305.151 302.421C301.878 310.859 297.185 319.466 296.325 332.032C295.848 340.33 297.521 347.227 300.205 352.018C302.189 355.948 305.22 359.255 308.978 361.59C315.074 365.022 319.601 364.316 319.601 364.316C316.325 357.363 316.891 350.801 318.675 344.894C320.53 338.888 323.714 333.6 326.337 326.765C329.001 319.971 328.444 312.744 326.545 306.127C325.359 302.161 323.746 298.34 321.732 294.728C322.862 296.207 324.003 297.683 325.113 299.178C329.795 306.767 332.858 314.163 335.403 321.521C339.437 333.154 342.166 344.773 348.087 358.094C355.901 375.792 365.663 385.27 373.828 388.931C377.87 390.742 381.222 391.071 383.396 390.579C385.51 390.122 386.377 389.423 386.377 389.423ZM259.908 284.826C260.385 276.767 262.065 268.932 263.178 259.336C263.719 254.772 263.623 250.169 262.892 245.656C262.216 241.271 261.036 236.986 259.374 232.885C257.43 228.159 254.899 223.7 251.836 219.609C252.012 219.647 252.204 219.684 252.37 219.711C258.355 224.903 264.2 230.244 269.904 235.733C272.336 238.095 274.718 240.502 277.101 242.916C277.77 245.456 277.98 248.1 277.722 250.729C277.317 255.314 275.854 259.67 274.041 263.872C272.228 268.073 270.009 272.186 267.828 276.794C265.359 281.918 263.482 287.292 262.233 292.811C261.713 295.037 261.339 297.291 261.115 299.559C259.88 294.525 259.644 289.635 259.908 284.826Z" fill="#91D1AF"/>
</svg>
