<svg width="418" height="392" viewBox="0 0 418 392" fill="none" xmlns="http://www.w3.org/2000/svg">
<path opacity="0.8" d="M31.4667 2.16917C35.1539 4.72881 37.4849 9.23758 38.9369 13.3904C40.4621 17.5909 41.2967 21.8812 41.9625 26.248C43.2982 35.0035 43.9677 44.1607 47.0667 55.2172C53.2202 77.4778 72.6961 87.8401 80.2135 92.6413C83.6474 94.8167 89.1685 98.228 93.9791 100.922L97.0874 102.653C85.6129 100.536 77.4554 95.7677 70.1289 90.3971C62.04 84.5467 54.9688 77.678 43.0767 72.0871C35.1057 68.4087 26.9575 67.1366 20.4163 67.8926C13.8548 68.5258 9.07179 71.1296 6.18032 73.6807C3.9429 75.5798 2.24208 78.0202 1.25062 80.754C0.874055 81.7101 0.636038 82.7114 0.543772 83.7281C8.73999 81.0718 15.6369 83.6385 20.8413 87.4795C26.2123 91.4003 30.5264 96.5695 37.3851 101.968C44.2439 107.366 52.5338 109.424 60.0793 109.702C67.6249 109.979 74.3286 108.532 78.2093 107.963C81.705 107.436 87.3087 106.382 91.9446 105.283L98.3638 103.644C106.505 114.229 115.007 124.529 123.869 134.543C115.27 133.016 108.599 130.165 102.062 127.034C93.8698 123.173 85.632 118.788 74.178 117.385C58.6954 115.767 49.2309 121.698 45.1158 126.823C40.8473 132.117 40.7034 136.679 40.7034 136.679C47.8604 134.617 54.0121 136.108 59.5238 138.527C65.1038 140.993 70.1463 144.369 76.6403 147.178C83.1342 149.988 89.6832 149.398 95.9115 147.812C102.097 146.238 107.697 143.642 111.053 142.47L126.159 137.08C127.697 138.795 129.247 140.498 130.81 142.19C132.531 144.788 134.862 147.746 137.173 149.766C138.122 150.569 139.119 151.316 140.159 152.002C142.056 153.941 143.947 155.889 145.88 157.795C150.224 162.027 154.675 166.161 159.188 170.235C152.916 168.531 146.815 166.292 140.954 163.543C137.001 161.734 133.164 159.859 129.129 158.178C124.95 156.499 121.273 154.984 115.452 153.947C108.448 152.818 103.935 153.337 100.232 154.179C96.6031 155.034 93.8224 156.374 91.2145 157.614L84.6212 160.835C82.916 161.665 81.8849 162.296 81.8849 162.296C88.4095 166.79 93.8179 169.822 99.304 173.551L107.557 178.872C108.984 179.756 110.362 180.604 111.627 181.387C113.025 182.306 114.493 183.119 116.018 183.821C122.783 187.025 129.33 186.213 135.223 184.435C141.117 182.657 146.379 179.893 149.629 178.696C152.507 177.606 157.313 175.865 161.624 174.651C162.268 174.465 162.889 174.297 163.497 174.136C175.218 184.494 187.59 194.114 200.542 202.94C187.396 202.208 177.353 200.502 167.479 198.544C156.524 196.411 145.838 194.129 133.11 194.432C130.967 194.482 128.932 194.605 126.917 194.805C122.002 195.349 117.174 196.564 112.572 198.416C108.772 199.988 105.157 201.978 101.796 204.349C99.0372 206.266 96.8095 208.018 95.2489 209.319C94.4068 209.999 93.6124 210.736 92.8714 211.523C102.521 214.004 110.252 215.087 117.991 217.144C121.844 218.114 125.569 219.125 129.166 220.303C133.353 221.578 137.625 222.587 141.953 223.321C151.286 224.9 159.284 222.83 166.229 220.071C173.175 217.313 179.016 213.797 182.733 212.105C186.013 210.634 191.478 208.166 196.292 206.358C198.571 205.461 200.68 204.71 202.282 204.151C209.205 208.779 216.318 213.132 223.618 217.211C229.605 220.583 235.761 223.697 241.997 226.609C214.686 234.972 197.339 229.274 172.341 231.256C154.902 232.57 144.65 237.214 138.438 241.735C132.227 246.256 130.325 250.615 130.325 250.615C150.513 249.807 162.309 257.888 183.855 259.393C205.382 260.748 220.123 246.18 226.889 240.959C231.26 237.549 239.458 230.832 243.639 227.395C256.44 233.298 269.73 238.145 283.375 241.889C273.551 248.918 263.089 251.678 253.021 253.81C241.289 256.377 228.959 257.653 214.748 264.869C197.439 273.589 189.575 283.678 186.337 290.882C183.068 298.161 184.033 302.833 184.033 302.833C192.577 296.72 200.724 294.226 209.102 292.419L222.078 289.876C226.641 288.999 231.419 287.734 235.881 286.82C245.686 284.542 253.842 279.543 260.408 273.915C266.974 268.287 271.516 262.262 274.293 258.848C277.571 254.861 280.597 250.681 283.355 246.331C284.226 244.94 285 243.634 285.653 242.482C295.924 245.222 306.385 247.268 316.964 248.606C321.505 249.15 326.068 249.561 330.655 249.84C323.423 253.366 317.256 256.908 311.487 260.252C303.905 264.759 297.02 268.941 290.409 273.267C283.778 277.533 277.361 282.121 271.184 287.014C265.308 291.656 259.078 296.64 252.629 303.077C244.053 311.63 238.197 320.216 234.897 327.887C231.598 335.558 230.702 342.097 230.999 346.919C231.357 351.804 232.68 354.952 233.891 356.901C235.103 358.85 235.994 359.569 235.994 359.569C238.867 347.448 246.344 339.873 254.192 333.833C262.224 327.687 271.228 322.858 281.985 314.888C293.18 306.468 299.184 297.521 304.565 289.379C309.787 281.259 313.737 273.786 316.764 269.577C319.397 265.826 323.991 259.739 328.742 254.91C330.517 253.059 332.29 251.392 333.81 250.029C344.827 250.592 355.891 250.251 366.888 249.009C371.802 248.457 376.693 247.735 381.563 246.842L380.662 247.358C374.656 250.763 368.863 254.532 363.319 258.642C357.552 262.811 352.141 267.444 347.142 272.493C341.281 278.335 336.135 284.835 331.814 291.855C327.197 299.34 324.095 307.618 322.682 316.221C321.524 323.447 321.493 330.783 322.588 337.974C324.568 350.848 329.189 360.04 331.826 365.485C334.142 370.397 338.504 377.876 342.913 383.088C347.257 388.44 351.282 391.278 351.282 391.278C345.892 383.399 343.431 373.471 342.692 364.492C342.012 355.834 342.59 347.099 344.408 338.553C347.786 321.924 354.538 308.677 364.871 292.3C378.705 270.744 387.748 259.088 393.41 250.79C395.786 247.499 397.604 244.797 398.964 242.76C404.683 241.101 410.297 239.085 415.772 236.725L415.788 236.716C416.375 236.441 416.836 235.952 417.069 235.353C417.303 234.754 417.292 234.093 417.038 233.512C416.785 232.931 416.309 232.476 415.712 232.244C415.116 232.012 414.447 232.023 413.848 232.272L413.644 232.361C409.509 234.175 405.285 235.778 400.99 237.162L399.586 236.471L397.24 234.748C395.641 233.626 394.155 232.355 392.804 230.952C391.403 229.547 390.022 228.277 388.767 226.748C383.658 220.874 379.614 214.605 375.951 208.257C368.612 195.531 362.753 182.386 353.141 167.684C340.348 148.076 328.308 138.791 319.814 134.781C311.178 130.799 306.261 131.757 306.261 131.757C322.772 152.209 323.04 169.732 335.266 194.335C347.381 219.217 370.793 229.655 380.369 233.755C385.078 235.932 389.985 237.68 395.031 238.977C385.654 241.566 376.099 243.42 366.456 244.521C364.379 244.776 362.301 244.995 360.222 245.179C355.262 243.847 350.74 241.312 347.061 237.801C341.259 232.531 337.039 225.968 333.642 219.044C330.129 212.012 327.735 205.011 323.999 196.44C320.645 188.906 317.349 181.089 313.157 172.405C302.207 149.177 290.343 136.456 281.6 131.021C277.223 128.233 273.718 127.019 271.305 126.503C268.892 125.987 267.634 126.096 267.634 126.096C276.18 137.748 279.645 148.876 282.498 160.179C285.352 171.551 287.339 183.395 292.896 198.097C294.252 201.669 295.874 205.132 297.748 208.459C298.719 210.155 299.464 211.456 300.293 212.752C301.163 214.176 302.051 215.545 303.007 216.952C306.631 222.337 310.885 227.273 315.684 231.663C322.574 237.879 330.675 242.654 339.516 245.708C339.675 245.768 339.863 245.827 340.035 245.888C332.515 245.787 325.019 245.313 317.545 244.466C310.284 243.623 303.091 242.374 295.961 240.849C285.702 230.939 280.446 219.041 276.508 207.699C271.821 194.168 269.096 180.328 261.599 163.89C257.302 154.455 252.821 145.725 247.938 139.489C243.083 133.148 238.036 128.992 233.628 126.711C229.221 124.429 225.647 123.91 223.315 124.031C220.984 124.153 219.915 124.646 219.915 124.646C224.495 128.495 227.308 133.444 229.168 138.34C231.029 143.236 232.067 148.225 232.894 153.309C233.721 158.394 234.305 163.63 235.361 169.407C235.845 172.24 236.735 175.542 237.348 178.31C237.962 181.078 238.751 184.124 239.657 187.295C242.914 198.78 248.9 209.283 257.121 217.938C264.272 225.588 271.748 230.287 276.034 233.135C278.044 234.549 280.83 236.257 283.813 237.913C268.395 233.735 253.433 228.141 239.119 221.204C234.32 218.064 230.687 212.614 228.569 206.933C226.048 200.033 225.073 192.875 224.828 185.661C224.674 182.064 224.716 178.396 224.76 174.62L224.761 168.577L224.583 162.624C224.301 154.711 223.762 146.24 221.858 136.813C219.371 124.278 214.709 114.189 209.405 107.139C204.083 100.027 198.163 96.0944 193.577 94.0537C191.564 93.2692 189.473 92.6834 187.336 92.3046C185.844 92.1264 184.335 92.0982 182.831 92.2203C180.493 92.4313 179.394 92.9664 179.394 92.9664C189.719 100.807 193.186 111.233 194.387 121.165C195.614 131.318 194.827 141.594 195.156 155.027C195.298 161.389 196.169 167.7 197.751 173.84C199.085 179.359 201.057 185.323 203.449 190.229C206.837 197.273 211.366 203.708 216.859 209.284C205.199 202.361 193.99 194.737 183.292 186.454C178.706 176.827 178.926 166.965 180.25 157.709C181.858 146.792 184.979 134.28 183.008 119.295C181.718 109.316 178.545 101.662 175.021 96.2196C171.496 90.7774 167.616 87.3919 164.25 85.2838C161.913 83.8134 159.324 82.7663 156.601 82.1904C156.379 80.4922 156.017 78.8174 155.518 77.1829C153.721 71.1307 150.419 67.1329 147.353 64.9796C145.073 63.287 142.353 62.2588 139.49 62.0085C138.467 61.901 137.431 61.9337 136.411 62.1058C140.51 69.0027 139.042 75.9265 136.133 81.5051C133.21 87.1768 128.779 92.6374 125.102 100.443C121.454 107.337 120.915 116.167 122.519 123.397C123.171 126.49 124.152 129.5 125.447 132.377C119.989 126.299 114.669 120.1 109.489 113.779C107.398 104.796 109.68 96.7021 112.692 89.1709C115.965 80.7331 120.659 72.1256 121.519 59.56C121.995 51.2614 120.323 44.3642 117.638 39.5732C115.655 35.6434 112.624 32.3366 108.866 30.0017C102.77 26.5693 98.2426 27.2757 98.2426 27.2757C101.518 34.2283 100.952 40.7905 99.1692 46.6976C97.3134 52.7034 94.1296 57.9913 91.5067 64.8271C88.8432 71.621 89.3996 78.8477 91.2991 85.4643C92.4844 89.4307 94.0977 93.252 96.1115 96.8633C94.9816 95.3846 93.8404 93.9083 92.7307 92.414C88.0485 84.8251 84.9857 77.4289 82.4404 70.0704C78.4068 58.4373 75.6779 46.8187 69.7566 33.4973C61.9424 15.7992 52.1811 6.32126 44.016 2.66047C39.9738 0.849687 36.6217 0.521 34.4477 1.01229C32.3334 1.46943 31.4667 2.16917 31.4667 2.16917ZM157.935 106.766C157.459 114.824 155.779 122.66 154.665 132.255C154.124 136.82 154.221 141.423 154.952 145.936C155.627 150.321 156.808 154.606 158.47 158.707C160.413 163.433 162.945 167.892 166.008 171.983C165.832 171.945 165.64 171.908 165.474 171.881C159.489 166.688 153.644 161.348 147.94 155.859C145.508 153.497 143.125 151.09 140.742 148.675C140.074 146.136 139.864 143.492 140.122 140.862C140.527 136.277 141.99 131.922 143.803 127.72C145.616 123.518 147.834 119.406 150.015 114.798C152.485 109.673 154.362 104.3 155.611 98.7805C156.131 96.5547 156.505 94.3005 156.729 92.0325C157.964 97.0666 158.2 101.956 157.935 106.766Z" fill="#F4856D"/>
</svg>
